<mxfile host="app.diagrams.net" modified="2022-01-20T15:24:50.735Z" agent="5.0 (Windows NT 10.0; Win64; x64) AppleWebKit/537.36 (KHTML, like Gecko) Chrome/97.0.4692.99 Safari/537.36" etag="Ras6lCPPkSSBOAHtY3v_" version="16.2.4" type="github">
  <diagram name="Page-1" id="c4acf3e9-155e-7222-9cf6-157b1a14988f">
    <mxGraphModel dx="1038" dy="481" grid="1" gridSize="10" guides="1" tooltips="1" connect="1" arrows="1" fold="1" page="1" pageScale="1" pageWidth="850" pageHeight="1100" background="none" math="0" shadow="0">
      <root>
        <mxCell id="0" />
        <mxCell id="1" parent="0" />
        <mxCell id="WbR7mpwzK_1HubP7EEPP-1" value="app.plantdiary&lt;br&gt;&lt;br&gt;&lt;br&gt;&lt;br&gt;&lt;br&gt;&lt;br&gt;&lt;br&gt;&lt;br&gt;&lt;br&gt;&lt;br&gt;&lt;br&gt;&lt;br&gt;" style="shape=folder;fontStyle=1;spacingTop=10;tabWidth=40;tabHeight=14;tabPosition=left;html=1;" vertex="1" parent="1">
          <mxGeometry x="140" y="30" width="230" height="220" as="geometry" />
        </mxCell>
        <mxCell id="WbR7mpwzK_1HubP7EEPP-2" value="AppModule" style="swimlane;fontStyle=1;align=center;verticalAlign=top;childLayout=stackLayout;horizontal=1;startSize=26;horizontalStack=0;resizeParent=1;resizeParentMax=0;resizeLast=0;collapsible=1;marginBottom=0;" vertex="1" parent="1">
          <mxGeometry x="180" y="110" width="160" height="34" as="geometry" />
        </mxCell>
        <mxCell id="WbR7mpwzK_1HubP7EEPP-4" value="" style="line;strokeWidth=1;fillColor=none;align=left;verticalAlign=middle;spacingTop=-1;spacingLeft=3;spacingRight=3;rotatable=0;labelPosition=right;points=[];portConstraint=eastwest;" vertex="1" parent="WbR7mpwzK_1HubP7EEPP-2">
          <mxGeometry y="26" width="160" height="8" as="geometry" />
        </mxCell>
        <mxCell id="WbR7mpwzK_1HubP7EEPP-6" value="RetrofitClientInstance" style="swimlane;fontStyle=1;align=center;verticalAlign=top;childLayout=stackLayout;horizontal=1;startSize=26;horizontalStack=0;resizeParent=1;resizeParentMax=0;resizeLast=0;collapsible=1;marginBottom=0;" vertex="1" parent="1">
          <mxGeometry x="180" y="160" width="160" height="34" as="geometry" />
        </mxCell>
        <mxCell id="WbR7mpwzK_1HubP7EEPP-8" value="" style="line;strokeWidth=1;fillColor=none;align=left;verticalAlign=middle;spacingTop=-1;spacingLeft=3;spacingRight=3;rotatable=0;labelPosition=right;points=[];portConstraint=eastwest;" vertex="1" parent="WbR7mpwzK_1HubP7EEPP-6">
          <mxGeometry y="26" width="160" height="8" as="geometry" />
        </mxCell>
        <mxCell id="WbR7mpwzK_1HubP7EEPP-10" value="app.plantdiary.ui&lt;br&gt;&lt;br&gt;&lt;br&gt;&lt;br&gt;&lt;br&gt;&lt;br&gt;&lt;br&gt;&lt;br&gt;&lt;br&gt;&lt;br&gt;&lt;br&gt;" style="shape=folder;fontStyle=1;spacingTop=10;tabWidth=40;tabHeight=14;tabPosition=left;html=1;" vertex="1" parent="1">
          <mxGeometry x="150" y="300" width="450" height="240" as="geometry" />
        </mxCell>
        <mxCell id="WbR7mpwzK_1HubP7EEPP-11" value="MainActivity" style="swimlane;fontStyle=1;align=center;verticalAlign=top;childLayout=stackLayout;horizontal=1;startSize=26;horizontalStack=0;resizeParent=1;resizeParentMax=0;resizeLast=0;collapsible=1;marginBottom=0;" vertex="1" parent="1">
          <mxGeometry x="175" y="390" width="105" height="34" as="geometry" />
        </mxCell>
        <mxCell id="WbR7mpwzK_1HubP7EEPP-13" value="" style="line;strokeWidth=1;fillColor=none;align=left;verticalAlign=middle;spacingTop=-1;spacingLeft=3;spacingRight=3;rotatable=0;labelPosition=right;points=[];portConstraint=eastwest;" vertex="1" parent="WbR7mpwzK_1HubP7EEPP-11">
          <mxGeometry y="26" width="105" height="8" as="geometry" />
        </mxCell>
        <mxCell id="WbR7mpwzK_1HubP7EEPP-15" value="ViewModel" style="swimlane;fontStyle=1;align=center;verticalAlign=top;childLayout=stackLayout;horizontal=1;startSize=26;horizontalStack=0;resizeParent=1;resizeParentMax=0;resizeLast=0;collapsible=1;marginBottom=0;" vertex="1" parent="1">
          <mxGeometry x="400" y="390" width="160" height="34" as="geometry" />
        </mxCell>
        <mxCell id="WbR7mpwzK_1HubP7EEPP-17" value="" style="line;strokeWidth=1;fillColor=none;align=left;verticalAlign=middle;spacingTop=-1;spacingLeft=3;spacingRight=3;rotatable=0;labelPosition=right;points=[];portConstraint=eastwest;" vertex="1" parent="WbR7mpwzK_1HubP7EEPP-15">
          <mxGeometry y="26" width="160" height="8" as="geometry" />
        </mxCell>
        <mxCell id="WbR7mpwzK_1HubP7EEPP-19" value="ApplicationViewModel" style="swimlane;fontStyle=1;align=center;verticalAlign=top;childLayout=stackLayout;horizontal=1;startSize=26;horizontalStack=0;resizeParent=1;resizeParentMax=0;resizeLast=0;collapsible=1;marginBottom=0;" vertex="1" parent="1">
          <mxGeometry x="265" y="490" width="160" height="34" as="geometry" />
        </mxCell>
        <mxCell id="WbR7mpwzK_1HubP7EEPP-21" value="" style="line;strokeWidth=1;fillColor=none;align=left;verticalAlign=middle;spacingTop=-1;spacingLeft=3;spacingRight=3;rotatable=0;labelPosition=right;points=[];portConstraint=eastwest;" vertex="1" parent="WbR7mpwzK_1HubP7EEPP-19">
          <mxGeometry y="26" width="160" height="8" as="geometry" />
        </mxCell>
        <mxCell id="WbR7mpwzK_1HubP7EEPP-23" value="Use" style="endArrow=open;endSize=12;dashed=1;html=1;rounded=0;exitX=1;exitY=0.5;exitDx=0;exitDy=0;entryX=0;entryY=0.5;entryDx=0;entryDy=0;" edge="1" parent="1" source="WbR7mpwzK_1HubP7EEPP-11" target="WbR7mpwzK_1HubP7EEPP-15">
          <mxGeometry width="160" relative="1" as="geometry">
            <mxPoint x="340" y="470" as="sourcePoint" />
            <mxPoint x="500" y="470" as="targetPoint" />
          </mxGeometry>
        </mxCell>
        <mxCell id="WbR7mpwzK_1HubP7EEPP-24" value="Use" style="endArrow=open;endSize=12;dashed=1;html=1;rounded=0;exitX=1;exitY=0.5;exitDx=0;exitDy=0;entryX=0;entryY=0.5;entryDx=0;entryDy=0;" edge="1" parent="1" source="WbR7mpwzK_1HubP7EEPP-11" target="WbR7mpwzK_1HubP7EEPP-19">
          <mxGeometry width="160" relative="1" as="geometry">
            <mxPoint x="340" y="470" as="sourcePoint" />
            <mxPoint x="500" y="470" as="targetPoint" />
          </mxGeometry>
        </mxCell>
        <mxCell id="WbR7mpwzK_1HubP7EEPP-25" value="app.plantdiary.dto&lt;br&gt;&lt;br&gt;&lt;br&gt;&lt;br&gt;&lt;br&gt;&lt;br&gt;&lt;br&gt;&lt;br&gt;&lt;br&gt;&lt;br&gt;&lt;br&gt;" style="shape=folder;fontStyle=1;spacingTop=10;tabWidth=40;tabHeight=14;tabPosition=left;html=1;" vertex="1" parent="1">
          <mxGeometry x="440" y="30" width="390" height="220" as="geometry" />
        </mxCell>
        <mxCell id="WbR7mpwzK_1HubP7EEPP-26" value="Plant" style="swimlane;fontStyle=1;align=center;verticalAlign=top;childLayout=stackLayout;horizontal=1;startSize=26;horizontalStack=0;resizeParent=1;resizeParentMax=0;resizeLast=0;collapsible=1;marginBottom=0;" vertex="1" parent="1">
          <mxGeometry x="470" y="104" width="160" height="118" as="geometry" />
        </mxCell>
        <mxCell id="WbR7mpwzK_1HubP7EEPP-27" value="plantId: Int&#xa;genus: String&#xa;species: String&#xa;cultivar: String&#xa;commonName: String" style="text;strokeColor=none;fillColor=none;align=left;verticalAlign=top;spacingLeft=4;spacingRight=4;overflow=hidden;rotatable=0;points=[[0,0.5],[1,0.5]];portConstraint=eastwest;" vertex="1" parent="WbR7mpwzK_1HubP7EEPP-26">
          <mxGeometry y="26" width="160" height="84" as="geometry" />
        </mxCell>
        <mxCell id="WbR7mpwzK_1HubP7EEPP-28" value="" style="line;strokeWidth=1;fillColor=none;align=left;verticalAlign=middle;spacingTop=-1;spacingLeft=3;spacingRight=3;rotatable=0;labelPosition=right;points=[];portConstraint=eastwest;" vertex="1" parent="WbR7mpwzK_1HubP7EEPP-26">
          <mxGeometry y="110" width="160" height="8" as="geometry" />
        </mxCell>
        <mxCell id="WbR7mpwzK_1HubP7EEPP-30" value="Specimen" style="swimlane;fontStyle=1;align=center;verticalAlign=top;childLayout=stackLayout;horizontal=1;startSize=26;horizontalStack=0;resizeParent=1;resizeParentMax=0;resizeLast=0;collapsible=1;marginBottom=0;" vertex="1" parent="1">
          <mxGeometry x="660" y="102" width="160" height="128" as="geometry" />
        </mxCell>
        <mxCell id="WbR7mpwzK_1HubP7EEPP-31" value="specimenId: Int&#xa;plantId: Int&#xa;latitude: String&#xa;longitude: String" style="text;strokeColor=none;fillColor=none;align=left;verticalAlign=top;spacingLeft=4;spacingRight=4;overflow=hidden;rotatable=0;points=[[0,0.5],[1,0.5]];portConstraint=eastwest;" vertex="1" parent="WbR7mpwzK_1HubP7EEPP-30">
          <mxGeometry y="26" width="160" height="84" as="geometry" />
        </mxCell>
        <mxCell id="WbR7mpwzK_1HubP7EEPP-32" value="" style="line;strokeWidth=1;fillColor=none;align=left;verticalAlign=middle;spacingTop=-1;spacingLeft=3;spacingRight=3;rotatable=0;labelPosition=right;points=[];portConstraint=eastwest;" vertex="1" parent="WbR7mpwzK_1HubP7EEPP-30">
          <mxGeometry y="110" width="160" height="18" as="geometry" />
        </mxCell>
        <mxCell id="WbR7mpwzK_1HubP7EEPP-36" value="" style="endArrow=none;html=1;edgeStyle=orthogonalEdgeStyle;rounded=0;exitX=1;exitY=0.5;exitDx=0;exitDy=0;entryX=0.008;entryY=0.612;entryDx=0;entryDy=0;entryPerimeter=0;" edge="1" parent="1" source="WbR7mpwzK_1HubP7EEPP-27" target="WbR7mpwzK_1HubP7EEPP-31">
          <mxGeometry relative="1" as="geometry">
            <mxPoint x="640" y="320" as="sourcePoint" />
            <mxPoint x="800" y="320" as="targetPoint" />
          </mxGeometry>
        </mxCell>
        <mxCell id="WbR7mpwzK_1HubP7EEPP-37" value="parent" style="edgeLabel;resizable=0;html=1;align=left;verticalAlign=bottom;" connectable="0" vertex="1" parent="WbR7mpwzK_1HubP7EEPP-36">
          <mxGeometry x="-1" relative="1" as="geometry" />
        </mxCell>
        <mxCell id="WbR7mpwzK_1HubP7EEPP-38" value="child" style="edgeLabel;resizable=0;html=1;align=right;verticalAlign=bottom;" connectable="0" vertex="1" parent="WbR7mpwzK_1HubP7EEPP-36">
          <mxGeometry x="1" relative="1" as="geometry" />
        </mxCell>
        <mxCell id="WbR7mpwzK_1HubP7EEPP-39" value="app.plantdiary.service&lt;br&gt;&lt;br&gt;&lt;br&gt;&lt;br&gt;&lt;br&gt;&lt;br&gt;&lt;br&gt;&lt;br&gt;&lt;br&gt;&lt;br&gt;&lt;br&gt;&lt;br&gt;" style="shape=folder;fontStyle=1;spacingTop=10;tabWidth=40;tabHeight=14;tabPosition=left;html=1;" vertex="1" parent="1">
          <mxGeometry x="150" y="610" width="560" height="290" as="geometry" />
        </mxCell>
        <mxCell id="WbR7mpwzK_1HubP7EEPP-40" value="«interface»&lt;br&gt;&lt;b&gt;IPlantService&lt;/b&gt;" style="html=1;" vertex="1" parent="1">
          <mxGeometry x="230" y="720" width="110" height="50" as="geometry" />
        </mxCell>
        <mxCell id="WbR7mpwzK_1HubP7EEPP-41" value="PlantServiceStub" style="swimlane;fontStyle=1;align=center;verticalAlign=top;childLayout=stackLayout;horizontal=1;startSize=26;horizontalStack=0;resizeParent=1;resizeParentMax=0;resizeLast=0;collapsible=1;marginBottom=0;" vertex="1" parent="1">
          <mxGeometry x="175" y="810" width="160" height="34" as="geometry" />
        </mxCell>
        <mxCell id="WbR7mpwzK_1HubP7EEPP-43" value="" style="line;strokeWidth=1;fillColor=none;align=left;verticalAlign=middle;spacingTop=-1;spacingLeft=3;spacingRight=3;rotatable=0;labelPosition=right;points=[];portConstraint=eastwest;" vertex="1" parent="WbR7mpwzK_1HubP7EEPP-41">
          <mxGeometry y="26" width="160" height="8" as="geometry" />
        </mxCell>
        <mxCell id="WbR7mpwzK_1HubP7EEPP-45" value="" style="endArrow=block;dashed=1;endFill=0;endSize=12;html=1;rounded=0;exitX=0.5;exitY=0;exitDx=0;exitDy=0;entryX=0.5;entryY=1;entryDx=0;entryDy=0;" edge="1" parent="1" source="WbR7mpwzK_1HubP7EEPP-41" target="WbR7mpwzK_1HubP7EEPP-40">
          <mxGeometry width="160" relative="1" as="geometry">
            <mxPoint x="340" y="700" as="sourcePoint" />
            <mxPoint x="500" y="700" as="targetPoint" />
          </mxGeometry>
        </mxCell>
        <mxCell id="WbR7mpwzK_1HubP7EEPP-46" value="PlantService" style="swimlane;fontStyle=1;align=center;verticalAlign=top;childLayout=stackLayout;horizontal=1;startSize=26;horizontalStack=0;resizeParent=1;resizeParentMax=0;resizeLast=0;collapsible=1;marginBottom=0;" vertex="1" parent="1">
          <mxGeometry x="310" y="860" width="160" height="34" as="geometry" />
        </mxCell>
        <mxCell id="WbR7mpwzK_1HubP7EEPP-48" value="" style="line;strokeWidth=1;fillColor=none;align=left;verticalAlign=middle;spacingTop=-1;spacingLeft=3;spacingRight=3;rotatable=0;labelPosition=right;points=[];portConstraint=eastwest;" vertex="1" parent="WbR7mpwzK_1HubP7EEPP-46">
          <mxGeometry y="26" width="160" height="8" as="geometry" />
        </mxCell>
        <mxCell id="WbR7mpwzK_1HubP7EEPP-50" value="" style="endArrow=block;dashed=1;endFill=0;endSize=12;html=1;rounded=0;entryX=0.5;entryY=1;entryDx=0;entryDy=0;exitX=0.5;exitY=0;exitDx=0;exitDy=0;" edge="1" parent="1" source="WbR7mpwzK_1HubP7EEPP-46" target="WbR7mpwzK_1HubP7EEPP-40">
          <mxGeometry width="160" relative="1" as="geometry">
            <mxPoint x="340" y="700" as="sourcePoint" />
            <mxPoint x="500" y="700" as="targetPoint" />
          </mxGeometry>
        </mxCell>
        <mxCell id="WbR7mpwzK_1HubP7EEPP-51" value="«interface»&lt;br&gt;&lt;b&gt;SpecimenService&lt;/b&gt;" style="html=1;" vertex="1" parent="1">
          <mxGeometry x="470" y="700" width="110" height="50" as="geometry" />
        </mxCell>
        <mxCell id="WbR7mpwzK_1HubP7EEPP-52" value="SpecimenServiceStub" style="swimlane;fontStyle=1;align=center;verticalAlign=top;childLayout=stackLayout;horizontal=1;startSize=26;horizontalStack=0;resizeParent=1;resizeParentMax=0;resizeLast=0;collapsible=1;marginBottom=0;" vertex="1" parent="1">
          <mxGeometry x="390" y="770" width="160" height="34" as="geometry" />
        </mxCell>
        <mxCell id="WbR7mpwzK_1HubP7EEPP-54" value="" style="line;strokeWidth=1;fillColor=none;align=left;verticalAlign=middle;spacingTop=-1;spacingLeft=3;spacingRight=3;rotatable=0;labelPosition=right;points=[];portConstraint=eastwest;" vertex="1" parent="WbR7mpwzK_1HubP7EEPP-52">
          <mxGeometry y="26" width="160" height="8" as="geometry" />
        </mxCell>
        <mxCell id="WbR7mpwzK_1HubP7EEPP-56" value="" style="endArrow=block;dashed=1;endFill=0;endSize=12;html=1;rounded=0;entryX=0.5;entryY=1;entryDx=0;entryDy=0;exitX=0.5;exitY=0;exitDx=0;exitDy=0;" edge="1" parent="1" source="WbR7mpwzK_1HubP7EEPP-52" target="WbR7mpwzK_1HubP7EEPP-51">
          <mxGeometry width="160" relative="1" as="geometry">
            <mxPoint x="340" y="700" as="sourcePoint" />
            <mxPoint x="500" y="700" as="targetPoint" />
          </mxGeometry>
        </mxCell>
        <mxCell id="WbR7mpwzK_1HubP7EEPP-57" value="SpecimenService" style="swimlane;fontStyle=1;align=center;verticalAlign=top;childLayout=stackLayout;horizontal=1;startSize=26;horizontalStack=0;resizeParent=1;resizeParentMax=0;resizeLast=0;collapsible=1;marginBottom=0;" vertex="1" parent="1">
          <mxGeometry x="520" y="840" width="160" height="34" as="geometry" />
        </mxCell>
        <mxCell id="WbR7mpwzK_1HubP7EEPP-59" value="" style="line;strokeWidth=1;fillColor=none;align=left;verticalAlign=middle;spacingTop=-1;spacingLeft=3;spacingRight=3;rotatable=0;labelPosition=right;points=[];portConstraint=eastwest;" vertex="1" parent="WbR7mpwzK_1HubP7EEPP-57">
          <mxGeometry y="26" width="160" height="8" as="geometry" />
        </mxCell>
        <mxCell id="WbR7mpwzK_1HubP7EEPP-62" value="" style="endArrow=block;dashed=1;endFill=0;endSize=12;html=1;rounded=0;exitX=0.5;exitY=0;exitDx=0;exitDy=0;entryX=0.75;entryY=1;entryDx=0;entryDy=0;" edge="1" parent="1" source="WbR7mpwzK_1HubP7EEPP-57" target="WbR7mpwzK_1HubP7EEPP-51">
          <mxGeometry width="160" relative="1" as="geometry">
            <mxPoint x="340" y="700" as="sourcePoint" />
            <mxPoint x="500" y="700" as="targetPoint" />
          </mxGeometry>
        </mxCell>
        <mxCell id="WbR7mpwzK_1HubP7EEPP-63" value="Use" style="endArrow=open;endSize=12;dashed=1;html=1;rounded=0;exitX=0.5;exitY=1;exitDx=0;exitDy=0;entryX=0.5;entryY=0;entryDx=0;entryDy=0;" edge="1" parent="1" source="WbR7mpwzK_1HubP7EEPP-15" target="WbR7mpwzK_1HubP7EEPP-40">
          <mxGeometry width="160" relative="1" as="geometry">
            <mxPoint x="340" y="500" as="sourcePoint" />
            <mxPoint x="500" y="500" as="targetPoint" />
          </mxGeometry>
        </mxCell>
        <mxCell id="WbR7mpwzK_1HubP7EEPP-64" value="app.myplantdiary.dao&lt;br&gt;&lt;br&gt;&lt;br&gt;&lt;br&gt;&lt;br&gt;&lt;br&gt;&lt;br&gt;&lt;br&gt;&lt;br&gt;&lt;br&gt;&lt;br&gt;&lt;br&gt;&lt;br&gt;&lt;br&gt;" style="shape=folder;fontStyle=1;spacingTop=10;tabWidth=40;tabHeight=14;tabPosition=left;html=1;" vertex="1" parent="1">
          <mxGeometry x="150" y="950" width="370" height="290" as="geometry" />
        </mxCell>
        <mxCell id="WbR7mpwzK_1HubP7EEPP-65" value="«interface»&lt;br&gt;&lt;b&gt;IPlantDAO&lt;/b&gt;" style="html=1;" vertex="1" parent="1">
          <mxGeometry x="225" y="1050" width="110" height="50" as="geometry" />
        </mxCell>
        <mxCell id="WbR7mpwzK_1HubP7EEPP-66" value="Use" style="endArrow=open;endSize=12;dashed=1;html=1;rounded=0;exitX=0.5;exitY=1;exitDx=0;exitDy=0;" edge="1" parent="1" source="WbR7mpwzK_1HubP7EEPP-46" target="WbR7mpwzK_1HubP7EEPP-65">
          <mxGeometry width="160" relative="1" as="geometry">
            <mxPoint x="340" y="900" as="sourcePoint" />
            <mxPoint x="500" y="900" as="targetPoint" />
          </mxGeometry>
        </mxCell>
        <mxCell id="WbR7mpwzK_1HubP7EEPP-67" value="«interface»&lt;br&gt;&lt;b&gt;ISpecimenDAO&lt;/b&gt;" style="html=1;" vertex="1" parent="1">
          <mxGeometry x="370" y="1060" width="110" height="50" as="geometry" />
        </mxCell>
        <mxCell id="WbR7mpwzK_1HubP7EEPP-68" value="Use" style="endArrow=open;endSize=12;dashed=1;html=1;rounded=0;entryX=0.5;entryY=0;entryDx=0;entryDy=0;" edge="1" parent="1" target="WbR7mpwzK_1HubP7EEPP-67">
          <mxGeometry width="160" relative="1" as="geometry">
            <mxPoint x="610" y="880" as="sourcePoint" />
            <mxPoint x="500" y="1000" as="targetPoint" />
          </mxGeometry>
        </mxCell>
        <mxCell id="WbR7mpwzK_1HubP7EEPP-69" value="SpecimenDatabase" style="swimlane;fontStyle=1;align=center;verticalAlign=top;childLayout=stackLayout;horizontal=1;startSize=26;horizontalStack=0;resizeParent=1;resizeParentMax=0;resizeLast=0;collapsible=1;marginBottom=0;" vertex="1" parent="1">
          <mxGeometry x="250" y="1160" width="160" height="34" as="geometry" />
        </mxCell>
        <mxCell id="WbR7mpwzK_1HubP7EEPP-71" value="" style="line;strokeWidth=1;fillColor=none;align=left;verticalAlign=middle;spacingTop=-1;spacingLeft=3;spacingRight=3;rotatable=0;labelPosition=right;points=[];portConstraint=eastwest;" vertex="1" parent="WbR7mpwzK_1HubP7EEPP-69">
          <mxGeometry y="26" width="160" height="8" as="geometry" />
        </mxCell>
        <mxCell id="WbR7mpwzK_1HubP7EEPP-73" value="RoomDatabase" style="swimlane;fontStyle=1;align=center;verticalAlign=top;childLayout=stackLayout;horizontal=1;startSize=26;horizontalStack=0;resizeParent=1;resizeParentMax=0;resizeLast=0;collapsible=1;marginBottom=0;" vertex="1" parent="1">
          <mxGeometry x="590" y="1000" width="160" height="34" as="geometry" />
        </mxCell>
        <mxCell id="WbR7mpwzK_1HubP7EEPP-75" value="" style="line;strokeWidth=1;fillColor=none;align=left;verticalAlign=middle;spacingTop=-1;spacingLeft=3;spacingRight=3;rotatable=0;labelPosition=right;points=[];portConstraint=eastwest;" vertex="1" parent="WbR7mpwzK_1HubP7EEPP-73">
          <mxGeometry y="26" width="160" height="8" as="geometry" />
        </mxCell>
        <mxCell id="WbR7mpwzK_1HubP7EEPP-78" value="Extends" style="endArrow=block;endSize=16;endFill=0;html=1;rounded=0;exitX=1;exitY=0.5;exitDx=0;exitDy=0;entryX=0.5;entryY=1;entryDx=0;entryDy=0;" edge="1" parent="1" source="WbR7mpwzK_1HubP7EEPP-69" target="WbR7mpwzK_1HubP7EEPP-73">
          <mxGeometry width="160" relative="1" as="geometry">
            <mxPoint x="360" y="1100" as="sourcePoint" />
            <mxPoint x="520" y="1100" as="targetPoint" />
          </mxGeometry>
        </mxCell>
      </root>
    </mxGraphModel>
  </diagram>
</mxfile>
